<?xml version="1.0" standalone="no"?>
<!DOCTYPE svg PUBLIC "-//W3C//DTD SVG 20010904//EN"
 "http://www.w3.org/TR/2001/REC-SVG-20010904/DTD/svg10.dtd">
<svg version="1.0" xmlns="http://www.w3.org/2000/svg" width="750.000000pt" height="190.000000pt" viewBox="0 0 750.000000 190.000000" preserveAspectRatio="xMidYMid meet"><g transform="translate(0.000000,190.000000) scale(0.100000,-0.100000)" fill="#000000" stroke="none">
<path d="M1051 1645 c-13 -27 -30 -67 -38 -87 -15 -38 -16 -38 -73 -38 l-58 0 -33 80 c-19 44 -37 80 -41 80 -13 0 -9 -16 22 -85 16 -37 30 -69 30 -71 0 -2 -29 -4 -64 -4 l-64 0 -33 80 c-18 44 -36 80 -41 80 -13 0 -9 -15 22 -85 16 -37 30 -69 30 -71 0 -2 -46 -4 -102 -4 l-103 0 -34 80 c-18 44 -37 80 -42 80 -12 0 -13 0 21 -78 17 -39 30 -73 30 -76 0 -4 -27 -6 -61 -6 l-60 0 -26 58 c-14 31 -29 67 -34 80 -5 13 -13 21 -18 17 -6 -3 3 -34 20 -71 34 -78 35 -84 9 -84 -11 0 -20 -4 -20 -10 0 -5 12 -10 28 -10 26 0 31 -10 185 -393 86 -215 157 -395 157 -399 0 -4 -55 -9 -122 -11 l-123 -3 123 -2 c67 -1 122 -4 122 -6 0 -2 -16 -45 -36 -96 -19 -51 -33 -95 -30 -98 9 -9 13 -1 49 92 l33 88 32 -82 c18 -45 32 -88 32 -96 0 -24 27 -16 28 9 0 12 14 55 30 96 l29 74 34 -92 c19 -50 37 -91 42 -91 12 0 7 22 -27 110 l-33 85 48 3 c27 2 71 2 98 0 l49 -3 -34 -84 c-19 -47 -34 -91 -34 -99 0 -29 19 2 45 73 16 42 31 78 35 80 9 6 64 -134 63 -158 -1 -9 5 -17 13 -17 8 0 14 7 14 15 0 9 14 52 31 97 l31 81 35 -89 c36-93 40 -101 48 -92 3 3 -10 47 -30 97 -19 51 -35 95 -35 97 0 2 48 5 108 6 l107 2 -110 5 -110 6 160 397 c96 239 165 398 173 398 8 0 11 7 8 18 -4 10 7 52 24 92 17 40 28 75 25 78 -8 8 -12 1 -48 -83 l-34 -80 -61 -3 c-34 -2 -62 1 -62 6 0 5 14 42 32 81 17 39 28 75 23 79 -4 4 -10 3 -12 -3 -2 -5 -18 -44 -36 -85 l-33 -75 -102 -3 c-56 -1 -102 -1 -102 1 0 3 11 29 24 58 32 73 39 99 28 99 -5 0 -24 -36 -43 -80 l-33 -80 -63 0 c-35 0 -63 2 -63 4 0 2 14 35 30 72 17 37 29 75 27 83 -2 10 -13 -5 -26 -34z m-265 -310 c35 -88 64 -164 64 -170 0 -23 -94 -245 -101 -238 -9 9 -229 552 -229 565 0 5 45 7 101 6 l101 -3 64 -160z m183 113 c-22 -56 -26 -64 -33 -57 -2 2 -14 28 -25 57 l-21 52 50 0 50 0 -21 -52z m388 35 c-9 -33 -219 -548 -226 -556 -4 -4 -30 48 -57 115 l-50 123 57 140 c32 77 63 152 68 168 l10 27 102 0 c92 0 101 -2 96 -17z m-368 -650 c24 -60 45 -114 48 -120 4 -10 -19 -13 -97 -13 -93 0 -102 2 -96 18 36 93 91 222 96 222 4 0 26 -48 49 -107z m-186 -159 c-1 -5 -12 -38 -26 -74 -28 -73 -20 -77 -66 38 l-21 53 57 -4 c32 -3 57 -9 56 -13z m359 -54 c-14 -36 -28 -69 -32 -73 -4 -4 -17 20 -30 55 -12 35 -24 68 -26 73 -3 6 19 10 54 10 l58 0 -24 -65z"/>
<path d="M4640 1681 c0 -5 16 -43 35 -85 l34 -76 -109 0 c-67 0 -110 -4 -110 -10 0 -6 44 -10 111 -10 102 0 111 -2 105 -17 -4 -10 -52 -129 -108 -265 l-102 -248 -63 0 c-35 0 -63 -4 -63 -10 0 -6 26 -10 59 -10 l60 0 -23 -52 -23 -53 -57 -3 c-69 -4 -75 -22 -6 -22 28 0 50 -2 50 -5 0 -2 -11 -29 -24 -59 -23 -53 -26 -55 -68 -59 l-43 -4 41 -1 42 -2 -40 -96 c-22 -53 -37 -98 -34 -102 9 -9 14 0 54 99 l38 94 62 3 c35 2 62 -1 62 -7 0 -5 -16 -47 -35 -92 -37 -88 -40 -99 -26 -99 4 0 26 45 47 100 l39 100 255 0 255 0 39 -100 c21 -55 43 -100 47 -100 14 0 11 14 -26 101 -19 46 -35 87 -35 91 0 4 28 8 63 8 l62 0 39 -100 c21 -55 43 -100 47 -100 14 0 11 11 -26 99 -19 45 -35 86 -35 91 0 5 15 11 33 13 31 4 31 4 -6 5 -35 2 -39 5 -62 58 -14 31 -25 58 -25 60 0 2 25 4 55 4 75 0 70 18 -6 22 l-62 3 -23 53 -23 52 60 0 c33 0 59 4 59 10 0 6 -28 10 -62 10 l-63 0 -102 248 c-56 136 -105 255 -109 265 -6 15 3 17 95 17 61 0 101 4 101 10 0 6 -38 10 -95 10 -52 0 -95 4 -95 9 0 5 14 39 30 76 17 37 30 71 30 76 0 17 -19 9 -25 -11 -4 -12 -19 -48 -34 -82 l-28 -60 -33 81 c-31 75 -49 99 -51 69 0 -7 -15 -44 -32 -82 l-32 -69 -34 82 c-18 44 -37 81 -42 81 -5 0 -9 -4 -9 -9z m188 -94 c12 -29 22 -56 22 -60 0 -4 -22 -7 -50 -7 -27 0 -50 3 -50 8 0 12 45 112 51 112 3 0 15 -24 27 -53z m40 -456 c34 -83 62 -152 62 -155 0 -4 -59 -6 -131 -6 -101 0 -130 3 -126 13 36 94 123 297 128 297 3 0 33 -67 67 -149z m132 -315 c0 -2 11 -29 25 -60 l25 -56 -249 0 -250 0 26 60 26 60 199 0 c109 0 198 -2 198 -4z"/>
<path d="M6560 1681 c0 -5 16 -43 35 -85 l34 -76 -109 0 c-67 0 -110 -4 -110 -10 0 -6 44 -10 111 -10 102 0 111 -2 105 -17 -4 -10 -52 -129 -108 -265 l-102 -248 -63 0 c-35 0 -63 -4 -63 -10 0 -6 26 -10 59 -10 l60 0 -23 -52 -23 -53 -57 -3 c-69 -4 -75 -22 -6 -22 28 0 50 -2 50 -5 0 -2 -11 -29 -24 -59 -23 -53 -26 -55 -68 -59 l-43 -4 41 -1 42 -2 -40 -96 c-22 -53 -37 -98 -34 -102 9 -9 14 0 54 99 l38 94 62 3 c35 2 62 -1 62 -7 0 -5 -16 -47 -35 -92 -37 -88 -40 -99 -26 -99 4 0 26 45 47 100 l39 100 255 0 255 0 39 -100 c21 -55 43 -100 47 -100 14 0 11 14 -26 101 -19 46 -35 87 -35 91 0 4 28 8 63 8 l62 0 39 -100 c21 -55 43 -100 47 -100 14 0 11 11 -26 99 -19 45 -35 86 -35 91 0 5 15 11 33 13 31 4 31 4 -6 5 -35 2 -39 5 -62 58 -14 31 -25 58 -25 60 0 2 25 4 55 4 75 0 70 18 -6 22 l-62 3 -23 53 -23 52 60 0 c33 0 59 4 59 10 0 6 -28 10 -62 10 l-63 0 -102 248 c-56 136 -105 255 -109 265 -6 15 3 17 95 17 61 0 101 4 101 10 0 6 -38 10 -95 10 -52 0 -95 4 -95 9 0 5 14 39 30 76 17 37 30 71 30 76 0 17 -19 9 -25 -11 -4 -12 -19 -48 -34 -82 l-28 -60 -33 81 c-31 75 -49 99 -51 69 0 -7 -15 -44 -32 -82 l-32 -69 -34 82 c-18 44 -37 81 -42 81 -5 0 -9 -4 -9 -9z m188 -94 c12 -29 22 -56 22 -60 0 -4 -22 -7 -50 -7 -27 0 -50 3 -50 8 0 12 45 112 51 112 3 0 15 -24 27 -53z m40 -456 c34 -83 62 -152 62 -155 0 -4 -59 -6 -131 -6 -101 0 -130 3 -126 13 36 94 123 297 128 297 3 0 33 -67 67 -149z m132 -315 c0 -2 11 -29 25 -60 l25 -56 -249 0 -250 0 26 60 26 60 199 0 c109 0 198 -2 198 -4z"/>
<path d="M1692 1603 l-2 -83 -50 0 c-27 0 -50 -4 -50 -10 0 -5 23 -10 50 -10 l50 0 0 -64 0 -65 -52 -4 -53 -3 53 -2 52 -2 0 -90 0 -90 -50 0 c-27 0 -50 -4 -50 -10 0 -5 23 -10 50 -10 l50 0 0 -64 0 -65 -47 -4 -48 -3 48 -2 47 -2 0 -90 0 -90 -50 0 c-27 0 -50 -4 -50 -10 0 -5 23 -10 50 -10 l50 0 0 -59 0 -60 -52 -4 -53 -3 52 -2 52 -2 4 -102 3 -103 2 103 2 102 60 0 59 0 4 -102 3 -103 2 103 2 102 165 0 164 0 4 -102 3 -103 2 103 2 102 60 0 59 0 4 -102 3 -103 2 102 2 102 53 4 52 3 -52 2 -53 2 0 60 0 60 50 0 c28 0 50 5 50 10 0 6 -22 10 -50 10 l-50 0 0 259 0 260 38 4 37 4 -37 1 -38 2 0 65 0 65 35 0 c19 0 35 5 35 10 0 6 -16 10 -35 10 l-34 0 -4 83 -3 82 -2 -82 -2 -83 -60 0 -59 0 -4 83 -3 82 -2 -82 -2 -83 -165 0 -164 0 -4 83 -3 82 -2 -82 -2 -83 -60 0 -59 0 -4 83 -3 82 -2 -82z m468 -333 l0 -90 -165 0 -165 0 0 90 0 90 165 0 165 0 0 -90z m130 -170 l0 -260 -60 0 -60 0 0 90 0 90 43 2 42 1 -42 4 -43 4 0 65 0 64 40 0 c22 0 40 5 40 10 0 6 -18 10 -40 10 l-40 0 0 90 0 90 60 0 60 0 0 -260z m-130 -170 l0 -90 -165 0 -165 0 0 90 0 90 165 0 165 0 0 -90z"/>
<path d="M2562 1598 l-2 -87 -52 -4 -53 -3 53 -2 52 -2 0 -64 0 -65 -52 -4 -53 -3 52 -2 52 -2 4 -57 3 -58 2 58 2 57 130 0 130 0 0 -330 0 -329 -112 -4 -113 -3 112 -2 112 -2 4 -102 3 -103 2 103 2 102 65 0 64 0 4 -102 3 -103 2 102 2 102 118 4 117 3 -117 2 -118 2 0 330 0 330 135 0 134 0 4 -57 3 -58 2 57 2 57 38 4 37 4 -37 1 -38 2 0 64 0 65 38 4 37 4 -37 1 -37 2 -4 88 -3 87 -2 -87 -2 -88 -135 0 -134 0 -4 88 -3 87 -2 -87 -2 -88 -65 0 -64 0 -4 88 -3 87 -2 -87 -2 -88 -130 0 -129 0 -4 88 -3 87 -2 -87z m121 -126 c31 -30 46 -28 18 2 l-22 23 30 -1 c16 -1 38 -9 48 -19 26 -23 41 -22 19 2 -16 17 -15 18 15 17 23 -1 33 -7 35 -20 2 -16 1 -16 -15 -2 -28 26 -37 18 -11 -9 32 -34 37 -65 6 -36 -37 34 -43 24 -7 -13 18 -19 28 -36 23 -40 -5 -3 -15 1 -22 9 -7 8 -17 15 -22 15 -6 0 -6 -5 1 -14 9 -11 5 -13 -19 -12 -16 1 -35 7 -42 14 -16 16 -33 15 -19 -2 9 -11 5 -13 -18 -12 -16 1 -33 5 -37 9 -10 10 -26 9 -20 -1 3 -5 -7 -8 -23 -8 -21 0 -27 4 -27 22 0 16 4 20 16 16 13 -5 13 -4 0 12 -20 26 -22 46 -2 39 15 -6 15 -4 -1 14 -17 20 -17 20 28 18 31 -1 52 -8 68 -23z m190 8 c4 0 5 6 1 13 -4 6 2 4 13 -5 23 -21 40 -24 25 -5 -9 10 -3 13 26 14 20 0 31 -2 24 -4 -10 -4 -10 -8 0 -21 9 -12 6 -11 -10 2 -12 11 -25 17 -28 14 -3 -3 7 -15 22 -27 15 -11 21 -21 14 -21 -10 0 -10 -4 1 -17 7 -10 -1 -5 -19 11 -17 16 -34 27 -37 24 -3 -3 10 -19 30 -37 20 -17 30 -31 23 -31 -10 0 -10 -2 0 -9 8 -5 -12 -8 -50 -7 -42 1 -65 5 -65 13 0 6 7 8 16 5 14 -5 14 -4 1 12 -18 22 -24 54 -7 37 20 -20 31 -12 12 9 -21 23 -32 61 -12 41 6 -6 15 -11 20 -11z m153 7 c12 -12 26 -8 18 6 -4 6 2 4 13 -5 23 -21 40 -24 24 -5 -18 22 102 16 127 -6 25 -23 40 -22 19 1 -15 17 -15 18 6 19 12 0 16 -1 9 -4 -6 -3 -9 -10 -5 -16 14 -22 11 -36 -5 -29 -15 5 -15 4 -2 -12 18 -22 24 -54 7 -37 -6 6 -16 11 -22 11 -5 -1 0 -9 12 -19 23 -19 22 -19 -27 -17 -28 1 -56 8 -62 14 -17 17 -33 15 -19 -1 9 -11 3 -14 -33 -13 -25 1 -48 4 -52 9 -11 11 -26 8 -19 -4 4 -6 -2 -5 -14 3 -12 7 -17 14 -11 16 6 2 7 9 3 15 -14 22 -11 36 5 30 14 -5 13 -2 -3 18 -15 18 -12 17 13 -5 17 -16 34 -27 37 -24 3 3 -10 19 -30 37 -27 24 -31 30 -16 28 11 -2 24 -6 27 -10z m-111 -167 c4 0 1 8 -9 18 -15 18 -14 19 18 18 19 -1 38 -5 42 -9 5 -4 0 -5 -11 -1 -20 7 -20 7 0 -17 l20 -24 -28 24 c-15 14 -29 22 -32 19 -3 -3 8 -17 25 -32 17 -14 26 -26 20 -26 -9 0 -9 -5 1 -17 7 -10 0 -6 -17 10 -47 42 -53 32 -9 -15 24 -25 13 -18 -25 17 -36 33 -61 63 -55 67 5 4 19 -2 30 -12 12 -11 25 -20 30 -20z m42 -108 c-4 -2 -2 -11 5 -20 6 -10 -6 0 -28 21 -56 52 -67 46 -14 -8 46 -47 61 -78 32 -68 -14 5 -14 2 3 -18 11 -13 -1 -5 -26 19 -62 59 -74 53 -14 -8 27 -27 50 -57 51 -66 2 -12 0 -14 -9 -5 -24 24 -29 10 -6 -16 13 -16 3 -9 -22 15 -62 59 -74 53 -14 -8 27 -27 50 -57 51 -66 2 -14 1 -14 -15 0 -32 29 -35 17 -5 -16 16 -18 6 -12 -21 15 -70 65 -82 59 -15 -8 29 -30 55 -62 56 -71 2 -14 1 -14 -15 0 -32 29 -35 17 -6 -16 17 -18 4 -9 -27 21 -32 30 -60 52 -63 50 -3 -3 22 -31 54 -62 33 -32 55 -57 49 -57 -6 0 -5 -7 3 -17 7 -10 2 -8 -12 5 -40 35 -46 26 -9 -15 19 -21 9 -14 -22 16 -32 30 -60 52 -63 50 -3 -3 22 -31 54 -62 33 -32 55 -57 49 -57 -6 0 -5 -7 3 -17 7 -10 0 -6 -17 10 -45 41 -53 32 -10 -12 l37 -38 -30 1 c-16 1 -33 5 -37 9 -12 11 -26 8 -18 -5 4 -6 -4 -3 -18 8 -15 10 -22 21 -17 22 6 2 4 11 -3 20 -7 10 -1 7 13 -5 40 -36 46 -27 9 15 -20 21 -12 16 17 -12 29 -28 55 -47 58 -44 3 2 -19 28 -49 56 -30 29 -50 52 -44 52 6 0 5 7 -3 18 -7 9 3 2 22 -15 50 -47 61 -41 14 7 -42 43 -54 73 -27 63 14 -5 14 -2 -3 18 -11 13 -1 7 21 -13 56 -53 67 -47 14 7 -46 47 -61 78 -32 68 14 -5 14 -2 -3 18 -11 13 1 5 26 -18 62 -60 74 -54 14 7 -27 27 -50 57 -51 66 -2 12 0 14 9 5 24 -24 29 -10 6 17 -13 15 -3 8 22 -15 62 -60 74 -54 14 7 -27 27 -50 57 -51 66 -2 14 -1 14 15 0 32 -29 35 -17 5 17 -16 17 -6 11 21 -15 70 -66 82 -60 15 7 -29 30 -55 62 -56 71 -2 14 -1 14 15 0 32 -29 35 -17 6 17 -17 17 -4 8 27 -22 32 -30 60 -52 63 -50 3 3 -22 31 -54 62 -33 32 -55 57 -49 57 6 0 5 7 -3 18 -7 9 -2 7 12 -5 40 -36 46 -26 8 14 -18 21 -5 11 31 -22 36 -33 61 -62 57 -63z"/><path d="M2601 1474 c9 -11 8 -15 -5 -20 -16 -6 -16 -8 -1 -24 15 -17 15 -19 -1 -28 -12 -6 -13 -11 -5 -16 7 -4 18 -2 26 4 8 7 20 8 27 4 19 -12 50 -15 43 -5 -9 16 15 24 31 10 19 -16 58 -23 49 -10 -11 19 17 22 38 5 12 -10 7 -3 -11 17 -18 19 -30 38 -27 41 8 8 -24 32 -48 35 -20 3 -20 3 -3 -16 26 -29 0 -38 -30 -10 -27 25 -104 38 -83 13z m82 -66 c-3 -6 -10 -5 -16 1 -18 18 -31 13 -16 -6 7 -10 -1 -5 -19 11 -17 16 -29 33 -26 38 3 5 14 2 23 -6 29 -26 36 -18 10 12 -16 18 -12 16 13 -7 21 -19 35 -38 31 -43z m57 -15 c0 -8 -9 0 -50 45 l-45 47 48 -45 c26 -24 47 -45 47 -47z m11 70 c13 -16 12 -17 -3 -4 -10 7 -18 15 -18 17 0 8 8 3 21 -13z m13 -55 c-3 -5 -14 -2 -25 8 -10 9 -16 21 -13 26 3 5 14 2 25 -8 10 -9 16 -21 13 -26z"/><path d="M2610 1446 c0 -2 8 -10 18 -17 15 -13 16 -12 3 4 -13 16 -21 21 -21 13z"/><path d="M2730 1436 c0 -2 8 -10 18 -17 15 -13 16 -12 3 4 -13 16 -21 21 -21 13z"/><path d="M2790 1456 c0 -2 8 -10 18 -17 15 -13 16 -12 3 4 -13 16 -21 21 -21 13z"/><path d="M2871 1454 c21 -22 12 -43 -13 -28 -7 4 -5 -2 5 -13 9 -11 15 -22 12 -25 -4 -4 61 -4 74 1 3 0 -9 16 -27 34 -17 17 -32 36 -34 42 -2 5 -11 10 -21 10 -15 2 -15 -1 4 -21z m65 -57 c5 -9 4 -9 -7 1 -7 6 -17 12 -22 12 -4 0 -5 -6 -1 -12 5 -9 3 -9 -9 1 -9 7 -14 17 -11 22 6 11 40 -5 50 -24z"/><path d="M2920 1466 c0 -2 8 -10 18 -17 15 -13 16 -12 3 4 -13 16 -21 21 -21 13z"/><path d="M3034 1462 c31 -33 58 -45 35 -14 -7 9 -1 6 13 -7 15 -13 25 -28 22 -33 -4 -6 -11 -5 -17 1 -18 18 -31 12 -16 -6 13 -16 12 -17 -3 -4 -10 7 -15 18 -11 24 3 6 1 7 -6 3 -6 -4 -17 -3 -24 3 -7 5 -19 6 -26 2 -9 -6 -10 -10 -2 -15 6 -4 8 -12 5 -18 -4 -7 -2 -8 4 -4 7 4 18 4 25 -1 17 -11 78 -13 72 -3 -9 15 15 22 31 9 8 -7 31 -13 50 -15 28 -2 33 1 24 11 -13 16 3 30 23 19 6 -4 4 2 -6 13 -9 11 -15 22 -12 25 3 3 -2 11 -10 18 -18 15 -118 23 -110 10 9 -14 -15 -23 -29 -11 -7 6 -16 8 -19 4 -4 -3 -15 0 -24 8 -10 7 -5 -1 11 -19z m141 -22 c4 0 0 10 -11 23 -11 12 -5 9 13 -7 18 -16 30 -33 27 -38 -4 -6 -11 -5 -17 1 -21 21 -30 11 -11 -11 10 -13 3 -8 -17 10 -19 17 -39 32 -44 32 -5 0 4 -15 21 -32 l29 -33 -37 34 c-37 34 -42 56 -11 44 12 -5 14 -3 8 8 -5 8 3 4 17 -8 13 -13 28 -23 33 -23z m26 23 c13 -16 12 -17 -3 -4 -17 13 -22 21 -14 21 2 0 10 -8 17 -17z m-166 -53 c10 -11 16 -20 13 -20 -3 0 -13 9 -23 20 -10 11 -16 20 -13 20 3 0 13 -9 23 -20z"/><path d="M3130 1456 c0 -2 8 -10 18 -17 15 -13 16 -12 3 4 -13 16 -21 21 -21 13z"/><path d="M2875 1330 c10 -11 20 -20 23 -20 3 0 -3 9 -13 20 -10 11 -20 20 -23 20 -3 0 3 -9 13 -20z"/><path d="M2920 1316 c0 -2 8 -10 18 -17 15 -13 16 -12 3 4 -13 16 -21 21 -21 13z"/><path d="M2920 1235 c13 -14 26 -25 28 -25 3 0 -5 11 -18 25 -13 14 -26 25 -28 25 -3 0 5 -11 18 -25z"/><path d="M2910 1165 c13 -14 26 -25 28 -25 3 0 -5 11 -18 25 -13 14 -26 25 -28 25 -3 0 5 -11 18 -25z"/><path d="M2905 1090 c10 -11 20 -20 23 -20 3 0 -3 9 -13 20 -10 11 -20 20 -23 20 -3 0 3 -9 13 -20z"/><path d="M2895 1020 c10 -11 20 -20 23 -20 3 0 -3 9 -13 20 -10 11 -20 20 -23 20 -3 0 3 -9 13 -20z"/><path d="M2890 945 c13 -14 26 -25 28 -25 3 0 -5 11 -18 25 -13 14 -26 25 -28 25 -3 0 5 -11 18 -25z"/><path d="M2885 870 c10 -11 20 -20 23 -20 3 0 -3 9 -13 20 -10 11 -20 20 -23 20 -3 0 3 -9 13 -20z"/><path d="M2875 800 c10 -11 20 -20 23 -20 3 0 -3 9 -13 20 -10 11 -20 20 -23 20 -3 0 3 -9 13 -20z"/><path d="M2920 786 c0 -2 8 -10 18 -17 15 -13 16 -12 3 4 -13 16 -21 21 -21 13z"/><path d="M3512 1610 l-2 -75 -26 43 c-14 23 -29 42 -35 42 -14 0 -12 -6 16 -50 14 -22 25 -42 25 -45 0 -3 -18 -5 -40 -5 -22 0 -40 -4 -40 -10 0 -5 23 -10 50 -10 l50 0 0 -64 0 -65 -32 -4 -33 -4 33 -1 32 -2 0 -164 0 -165 -47 -4 -48 -3 48 -2 47 -2 0 -55 0 -55 -45 0 c-25 0 -45 -4 -45 -10 0 -5 20 -10 45 -10 l45 0 0 -95 0 -94 -62 -4 -63 -3 62 -2 62 -2 4 -102 3 -103 2 103 2 102 60 0 60 0 0 -100 c0 -60 4 -100 10 -100 6 0 10 40 10 100 l0 101 158 -3 157 -3 6 -100 5 -100 2 85 3 85 40 -77 c23 -43 45 -75 51 -72 5 3 -12 44 -37 90 -25 46 -45 86 -45 89 0 3 25 5 55 5 l55 0 0 -100 c0 -60 4 -100 10 -100 6 0 10 38 10 93 1 91 1 92 18 65 9 -16 20 -28 24 -28 11 0 10 7 -7 40 l-16 30 48 2 48 1 -55 6 -55 6 -3 93 c-3 87 -2 92 18 92 11 0 20 5 20 10 0 6 -9 10 -20 10 -19 0 -20 7 -20 224 0 205 1 225 18 229 16 4 16 5 0 6 -15 1 -18 11 -18 66 l0 65 30 0 c17 0 30 5 30 10 0 6 -13 10 -30 10 l-30 0 0 80 c0 47 -4 80 -10 80 -6 0 -10 -33 -10 -80 l0 -80 -60 0 -59 0 -4 83 -3 82 -2 -83 -2 -83 -157 3 -158 3 -3 78 c-3 87 -19 104 -24 25 l-3 -53 -28 48 c-15 26 -32 45 -37 42 -5 -3 9 -35 30 -71 22 -35 40 -67 40 -69 0 -3 -27 -5 -60 -5 l-59 0 -4 83 -3 82 -2 -75z m468 -125 c0 -18 -1 -18 -36 0 l-29 15 33 0 c22 0 32 -5 32 -15z m130 -50 c0 -81 -14 -84 -75 -17 -63 67 -60 82 15 82 l60 0 0 -65z m-393 -93 c-15 -10 -34 -27 -42 -38 -13 -18 -14 -16 -15 19 l0 37 43 0 42 0 -28 -18z m392 -14 c0 -18 -3 -26 -6 -18 -3 8 -10 23 -15 33 -6 12 -5 17 7 17 10 0 15 -10 14 -32z m-209 -1 c46 -30 72 -78 72 -131 0 -42 -21 -98 -41 -110 -5 -4 -38 45 -74 106 -100 176 -96 158 -39 158 34 0 59 -7 82 -23z m-68 -130 l77 -132 -41 -18 c-59 -27 -76 -15 -142 102 -50 88 -55 104 -46 123 14 27 62 70 70 62 3 -3 40 -65 82 -137z m-116 -70 c23 -40 41 -74 39 -76 -9 -9 -64 42 -79 73 -16 34 -23 96 -9 82 4 -4 26 -39 49 -79z m1 -79 l28 -18 -42 0 -43 0 0 38 c1 34 2 36 15 18 8 -11 27 -28 42 -38z m393 -48 l0 -90 -44 0 c-59 0 -66 21 -24 69 17 20 38 39 47 43 9 4 11 7 4 7 -8 1 -8 8 0 31 6 17 13 30 14 30 2 0 3 -40 3 -90z m-205 -197 c28 -47 52 -90 53 -95 2 -4 -64 -8 -147 -8 l-151 0 0 95 0 95 98 0 97 0 50 -87z m205 20 l0 -68 -35 60 c-19 33 -35 63 -35 68 0 4 16 7 35 7 l35 0 0 -67z"/>
<path d="M5462 1603 l-2 -83 -50 0 c-27 0 -50 -4 -50 -10 0 -5 23 -10 50 -10 l50 0 0 -64 0 -65 -52 -4 -53 -3 53 -2 52 -2 0 -90 0 -90 -50 0 c-27 0 -50 -4 -50 -10 0 -5 23 -10 50 -10 l50 0 0 -64 0 -65 -47 -4 -48 -3 48 -2 47 -2 0 -159 0 -160 -47 -4 -48 -3 47 -2 47 -2 4 -102 3 -103 2 103 2 102 60 0 60 0 0 -100 c0 -60 4 -100 10 -100 6 0 10 40 10 100 l0 100 145 0 144 0 4 -103 3 -102 2 103 2 102 60 0 60 0 0 -100 c0 -60 4 -100 10 -100 6 0 10 40 10 99 l0 100 38 4 37 4 -37 1 -38 2 0 329 0 330 38 4 37 4 -37 1 -38 2 0 65 0 65 35 0 c19 0 35 5 35 10 0 6 -16 10 -35 10 l-35 0 0 80 c0 47 -4 80 -10 80 -6 0 -10 -33 -10 -80 l0 -80 -60 0 -59 0 -4 83 -3 82 -2 -82 -2 -83 -145 0 -145 0 0 80 c0 47 -4 80 -10 80 -6 0 -10 -33 -10 -80 l0 -80 -60 0 -59 0 -4 83 -3 82 -2 -82z m438 -333 l0 -90 -145 0 -145 0 0 90 0 90 145 0 145 0 0 -90z m130 -240 l0 -330 -60 0 -60 0 0 160 0 160 28 1 27 2 -27 4 c-27 4 -28 6 -28 69 0 62 1 64 25 64 14 0 25 5 25 10 0 6 -11 10 -25 10 -25 0 -25 1 -25 90 l0 90 60 0 60 0 0 -330z m-130 -170 l0 -160 -145 0 -145 0 0 160 0 160 145 0 145 0 0 -160z"/>
</g></svg>